<?xml version="1.0" encoding="UTF-8"?>
<!--

    Copyright (c) 2012-2017 Red Hat, Inc.
    All rights reserved. This program and the accompanying materials
    are made available under the terms of the Eclipse Public License v1.0
    which accompanies this distribution, and is available at
    http://www.eclipse.org/legal/epl-v10.html

    Contributors:
      Red Hat, Inc. - initial API and implementation

-->
<svg xmlns="http://www.w3.org/2000/svg" xmlns:xlink="http://www.w3.org/1999/xlink"
	 version="1.1"
	 x="0px" y="0px"
	 width="32px" height="32px"
	 viewBox="6 6 20 20">
	<text x="7.5625" y="13.5" xml:space="preserve"
     style="font-style:normal;font-weight:normal;font-size:10.93749984px;line-height:125%;font-family:sans-serif;letter-spacing:0px;word-spacing:0px;fill:#000000;fill-opacity:1;stroke:none;stroke-width:1px;stroke-linecap:butt;stroke-linejoin:miter;stroke-opacity:1;">
		<tspan x="7.5625" y="13.5" />
	</text>
	<text x="7.5625" y="22.25" xml:space="preserve"
     style="font-style:normal;font-weight:normal;font-size:10.9375px;line-height:125%;font-family:sans-serif;letter-spacing:0px;word-spacing:0px;fill:#000000;fill-opacity:1;stroke:none;stroke-width:1px;stroke-linecap:butt;stroke-linejoin:miter;stroke-opacity:1">
		<tspan x="7.5625" y="22.25" />
	</text>
	<text x="6.9375" y="18.1875" xml:space="preserve"
     style="font-style:normal;font-weight:normal;font-size:25px;line-height:125%;font-family:sans-serif;letter-spacing:0px;word-spacing:0px;fill:#000000;fill-opacity:1;stroke:none;stroke-width:1px;stroke-linecap:butt;stroke-linejoin:miter;stroke-opacity:1">
		<tspan x="6.9375" y="18.1875" />
	</text>
	<text x="7.25" y="17.875" xml:space="preserve"
		 style="font-style:normal;font-weight:normal;font-size:25px;line-height:125%;font-family:sans-serif;letter-spacing:0px;word-spacing:0px;fill:#000000;fill-opacity:1;stroke:none;stroke-width:1px;stroke-linecap:butt;stroke-linejoin:miter;stroke-opacity:1">
		<tspan x="7.25" y="17.875" />
	</text>
	<path style="font-style:normal;font-weight:normal;font-size:9.81980515px;line-height:125%;font-family:sans-serif;letter-spacing:0px;word-spacing:0px;fill:#3193d4;fill-opacity:1;stroke:none;stroke-width:1px;stroke-linecap:butt;stroke-linejoin:miter;stroke-opacity:1"
		  d="M 3.7070312 11.136719 A 0.65737449 0.65737449 0 0 0 3.0488281 11.794922 A 0.65737449 0.65737449 0 0 0 3.1621094 12.164062 A 0.65737449 0.65737449 0 0 0 3.1894531 12.203125 L 5.5761719 15.716797 L 2.9296875 19.630859 A 0.65763564 0.65763564 0 0 0 2.9238281 19.636719 L 2.921875 19.640625 A 0.65763564 0.65763564 0 0 0 2.8085938 20.007812 A 0.65763564 0.65763564 0 0 0 3.4648438 20.666016 L 3.4667969 20.666016 A 0.65763564 0.65763564 0 0 0 4.0117188 20.376953 L 4.0175781 20.369141 L 6.3671875 16.890625 L 8.7460938 20.412109 A 0.65844499 0.65844499 0 0 0 8.7558594 20.425781 A 0.65844499 0.65844499 0 0 0 9.2988281 20.716797 L 9.3007812 20.716797 A 0.65844499 0.65844499 0 0 0 9.9589844 20.056641 A 0.65844499 0.65844499 0 0 0 9.8457031 19.689453 L 9.3125 18.898438 L 8.6015625 17.84375 L 7.2246094 15.804688 L 8.953125 13.251953 L 9.6875 12.166016 L 9.6914062 12.162109 A 0.65763556 0.65763556 0 0 0 9.8027344 11.794922 A 0.65763556 0.65763556 0 0 0 9.1464844 11.136719 A 0.65763556 0.65763556 0 0 0 8.6015625 11.425781 L 6.4257812 14.632812 L 4.2636719 11.445312 L 4.2597656 11.439453 A 0.65737449 0.65737449 0 0 0 4.25 11.425781 A 0.65737449 0.65737449 0 0 0 3.7070312 11.136719 z "
		  transform="matrix(0.62499999,0,0,0.62499999,6,6)" />
	<path style="font-style:normal;font-weight:normal;font-size:4.49298525px;line-height:125%;font-family:sans-serif;letter-spacing:0px;word-spacing:0px;fill:#3193d4;fill-opacity:1;stroke:none;stroke-width:1px;stroke-linecap:butt;stroke-linejoin:miter;stroke-opacity:1"
			d="m 13.829006,14.236636 a 0.18554687,0.18554687 0 0 0 -0.172119,0.185546 0.18554687,0.18554687 0 0 0 0.0012,0.02197 l 0,1.19751 -1.224365,0 a 0.1867675,0.1867675 0 0 0 -0.186768,0.186767 0.1867675,0.1867675 0 0 0 0.186768,0.186768 l 0.01343,0 1.210937,0 0,1.219482 0.0012,0 a 0.18432617,0.18432617 0 0 0 0.184326,0.184327 0.18432617,0.18432617 0 0 0 0.184327,-0.184327 0.18432617,0.18432617 0 0 0 -0.0012,-0.02197 l 0,-1.19751 1.224365,0 a 0.18676793,0.18676793 0 0 0 0.186785,-0.186767 0.18676793,0.18676793 0 0 0 -0.186767,-0.186767 l -1.224365,0 0,-1.201172 a 0.18554687,0.18554687 0 0 0 0.0012,-0.01831 0.18554687,0.18554687 0 0 0 -0.185547,-0.185546 0.18554687,0.18554687 0 0 0 -0.01343,0 z"/>
	<path style="font-style:normal;font-weight:normal;font-size:9.375px;line-height:125%;font-family:sans-serif;letter-spacing:0px;word-spacing:0px;fill:#3193d4;fill-opacity:1;stroke:none;stroke-width:1px;stroke-linecap:butt;stroke-linejoin:miter;stroke-opacity:1"
			d="m 19.831787,12.981201 a 0.41380319,0.41380319 0 0 0 -0.355225,0.26001 L 17.875,17.25 16.576172,13.999267 16.274658,13.248535 a 0.41198897,0.41198897 0 0 0 -0.0012,-0.0037 0.41198897,0.41198897 0 0 0 -0.38208,-0.26001 0.41198897,0.41198897 0 0 0 -0.412597,0.412598 0.41198897,0.41198897 0 0 0 0.0293,0.152587 0.41198897,0.41198897 0 0 0 0.01465,0.03418 l 0.297852,0.726319 1.6333,3.973388 -0.151367,0.384521 c -0.15564,0.408936 -0.297852,0.668946 -0.426025,0.778809 -0.128174,0.109863 -0.307617,0.164795 -0.539551,0.164795 l -0.494385,0 0,0.0012 a 0.3518385,0.3518385 0 0 0 -0.0037,0 0.3518385,0.3518385 0 0 0 -0.351562,0.350342 0.3518385,0.3518385 0 0 0 0.351562,0.352783 0.3518385,0.3518385 0 0 0 0.0037,0 l 0.672608,0 c 0.378418,0 0.679931,-0.09338 0.905761,-0.279541 0.22583,-0.186157 0.457764,-0.583496 0.695801,-1.193848 l 1.820069,-4.527587 0.305175,-0.760498 a 0.41380319,0.41380319 0 0 0 0.03174,-0.161134 0.41380319,0.41380319 0 0 0 -0.412597,-0.412597 0.41380319,0.41380319 0 0 0 -0.0293,0 z" />
	<path style="font-style:normal;font-weight:normal;font-size:4.49298525px;line-height:125%;font-family:sans-serif;letter-spacing:0px;word-spacing:0px;fill:#3193d4;fill-opacity:1;stroke:none;stroke-width:1px;stroke-linecap:butt;stroke-linejoin:miter;stroke-opacity:1"
		  d="m 20.788233,14.95563 a 0.1867675,0.1867675 0 0 0 -0.186767,0.186767 0.1867675,0.1867675 0 0 0 0.186767,0.186768 l 0.01343,0 0.725097,0 0.48584,0 0.368652,0 0.493164,0 0.731201,0 a 0.18676793,0.18676793 0 0 0 0.186767,-0.186768 0.18676793,0.18676793 0 0 0 -0.174561,-0.186767 l -1.236572,0 -0.368652,0 -0.374756,0 -0.84961,0 z" />
	<path style="font-style:normal;font-weight:normal;font-size:4.49298525px;line-height:125%;font-family:sans-serif;letter-spacing:0px;word-spacing:0px;fill:#3193d4;fill-opacity:1;stroke:none;stroke-width:1px;stroke-linecap:butt;stroke-linejoin:miter;stroke-opacity:1"
		  d="m 20.80227,16.266665 a 0.1867675,0.1867675 0 0 0 -0.186767,0.186767 0.1867675,0.1867675 0 0 0 0.186767,0.186768 l 0.01343,0 0.725098,0 0.48584,0 0.368652,0 0.493164,0 0.731201,0 a 0.18676793,0.18676793 0 0 0 0.186768,-0.186768 0.18676793,0.18676793 0 0 0 -0.174561,-0.186767 l -1.236572,0 -0.368652,0 -0.374757,0 -0.849609,0 z" />
</svg>
